<svg width="1000" height="600" xmlns="http://www.w3.org/2000/svg"><defs><linearGradient id="a" gradientTransform="rotate(90)"><stop offset="5%" stop-color="#756fd6"/><stop offset="95%" stop-color="#9793e0"/></linearGradient><linearGradient id="b" gradientTransform="rotate(90)"><stop offset="5%" stop-color="#7d7edb"/><stop offset="95%" stop-color="#9d9ee4"/></linearGradient><linearGradient id="c" gradientTransform="rotate(90)"><stop offset="5%" stop-color="#868cdf"/><stop offset="95%" stop-color="#a4a8e7"/></linearGradient><linearGradient id="d" gradientTransform="rotate(90)"><stop offset="5%" stop-color="#a9acea"/><stop offset="95%" stop-color="#bec0ef"/></linearGradient><linearGradient id="e" gradientTransform="rotate(90)"><stop offset="5%" stop-color="#cccdf4"/><stop offset="95%" stop-color="#d8d9f6"/></linearGradient><linearGradient id="f" gradientTransform="rotate(90)"><stop offset="5%" stop-color="#efedff"/><stop offset="95%" stop-color="#f3f1ff"/></linearGradient></defs><path fill="#6c61d2" d="M0 0h1000v600H0z"/><path d="M0 85c24.144 4.91 48.289 9.822 71 7 22.711-2.822 43.99-13.377 64-18 20.01-4.623 38.752-3.315 63 2 24.248 5.315 54 14.638 76 18s36.244.763 57 1 48.022 3.308 73 0 47.666-12.997 68-12c20.334.997 38.313 12.678 61 14 22.687 1.322 50.083-7.714 74-15s44.356-12.82 63-16c18.644-3.18 35.493-4.006 59 1 23.507 5.006 53.672 15.844 79 18 25.328 2.156 45.82-4.37 66-5 20.18-.63 40.048 4.638 64 10 23.952 5.362 51.986 10.818 63 10 11.014-.818 5.007-7.909 39-15l-40 515H0Z" fill="url(#a)"/><path d="M0 171c17.498 7.678 34.996 15.356 58 18 23.004 2.644 51.513.253 76-7 24.487-7.253 44.95-19.368 64-16 19.05 3.368 36.684 22.219 60 25 23.316 2.781 52.312-10.507 76-22 23.688-11.493 42.07-21.189 61-18s38.412 19.263 63 24c24.588 4.737 54.283-1.863 76-2s35.458 6.19 58 6c22.542-.19 53.887-6.899 79-5s43.996 12.404 62 8c18.004-4.404 35.131-23.719 60-24 24.869-.281 57.48 18.471 78 28 20.52 9.529 28.948 9.835 54 1s66.73-26.81 82-31c15.27-4.19 4.135 5.405 33 15l-40 429H0Z" fill="url(#b)"/><path d="M0 257c20.358 4.14 40.717 8.28 63 12 22.283 3.72 46.492 7.02 72 2 25.508-5.02 52.315-18.363 72-27 19.685-8.637 32.247-12.568 52-3s46.697 32.636 70 36c23.303 3.364 42.967-12.977 68-16 25.033-3.023 55.437 7.272 77 4 21.563-3.272 34.284-20.11 52-18 17.716 2.11 40.425 23.169 66 29 25.575 5.831 54.015-3.564 80-4 25.985-.436 49.515 8.088 68 1 18.485-7.088 31.926-29.789 53-28 21.074 1.789 49.783 28.067 72 26s37.943-32.48 64-33c26.057-.52 62.445 28.851 76 37 13.555 8.149 4.278-4.926 35-18l-40 343H0Z" fill="url(#c)"/><path d="M0 342c24.263-4.609 48.526-9.217 71-3 22.474 6.217 43.16 23.261 65 18 21.84-5.261 44.834-32.827 69-36 24.166-3.173 49.503 18.046 69 29s33.153 11.644 54 9 48.883-8.622 71-11c22.117-2.378 38.313-1.157 62-3 23.687-1.843 54.864-6.75 77-6 22.136.75 35.231 7.158 57 11 21.769 3.842 52.212 5.118 76 7 23.788 1.882 40.923 4.37 63 0 22.077-4.37 49.098-15.6 70-20s35.685-1.973 58 0c22.315 1.973 52.162 3.493 78 5 25.838 1.507 47.668 3.002 57 3 9.332-.002 6.166-1.501 43-3l-40 258H0Z" fill="url(#d)"/><path d="M0 428c20.345 2.129 40.69 4.258 64 2 23.31-2.258 49.585-8.901 74-11s46.971.348 66 8c19.029 7.652 34.53 20.51 55 17 20.47-3.51 45.908-23.385 69-25 23.092-1.615 43.837 15.032 65 20 21.163 4.968 42.742-1.742 65-6 22.258-4.258 45.194-6.064 70-4 24.806 2.064 51.482 7.999 75 7 23.518-.999 43.877-8.931 63-10 19.123-1.069 37.008 4.726 60 3 22.992-1.726 51.089-10.974 75-14s43.636.168 66 0c22.364-.168 47.367-3.7 71 2 23.633 5.7 45.895 20.628 56 24 10.105 3.372 8.052-4.814 46-13l-40 172H0Z" fill="url(#e)"/><path d="M0 514c22.458 11.137 44.917 22.274 65 20 20.083-2.274 37.79-17.959 60-21 22.21-3.041 48.92 6.561 72 3s42.53-20.285 67-23 53.958 8.58 77 20 39.638 22.962 59 17c19.362-5.962 41.492-29.428 65-33 23.508-3.572 48.395 12.75 72 17 23.605 4.25 45.927-3.574 67-5 21.073-1.426 40.896 3.547 62 3 21.104-.547 43.49-6.614 67-5 23.51 1.614 48.142 10.91 70 8 21.858-2.91 40.941-18.028 63-14 22.059 4.028 47.093 27.2 73 33 25.907 5.8 52.688-5.771 63-12 10.312-6.229 4.156-7.114 38-8l-40 86H0Z" fill="url(#f)"/><path d="M0 599c26.567 8.786 53.134 17.571 73 15 19.866-2.571 33.03-16.5 55-20s52.744 3.426 78 9 44.992 9.797 65 9c20.008-.797 40.286-6.612 60-14s38.864-16.347 63-15c24.136 1.347 53.257 13 79 20 25.743 7 48.11 9.346 66 10 17.89.654 31.305-.384 54-3s54.669-6.809 78-13c23.331-6.191 38.02-14.38 60-12 21.98 2.38 51.252 15.328 74 14 22.748-1.328 38.974-16.933 57-17 18.026-.067 37.853 15.405 66 17 28.147 1.595 64.613-10.687 78-13 13.387-2.313 3.693 5.344 34 13l-40 1H0Z" fill="url(#gradient_7)"/></svg>